<svg width="662" height="583" viewBox="0 0 662 583" fill="none" xmlns="http://www.w3.org/2000/svg">
<g opacity="0.15" filter="url(#filter0_d_24_689)">
<mask id="path-1-inside-1_24_689" fill="white">
<path d="M349.785 520.527C343.994 515.395 337.894 510.219 332.102 504.512C327.461 508.804 323.129 512.83 318.531 516.811C261.195 566.272 202.09 586.888 167.079 566.847C133.172 547.691 122.518 491.108 136.09 419.881C137.549 412.183 139.273 404.441 141.306 396.743C135.206 394.929 129.415 393.292 123.623 391.346C51.478 366.704 4 326.667 4 286.629C4 246.592 48.2952 210.58 117.523 186.558C125.259 183.992 133.437 181.426 141.881 179.126C139.936 171.693 138.433 164.526 136.974 157.625C122.474 85.3363 132.597 27.6028 166.813 8.18131C202.444 -12.3904 261.504 9.59699 320.874 61.3581C324.322 64.4991 327.814 67.9498 331.572 71.3563C337.054 66.2245 342.27 61.0484 347.796 56.4916C403.938 8.09283 459.816 -12.125 494.032 7.34074C529.662 27.3373 540.095 89.0967 524.181 165.455C523.297 170.322 522.236 174.923 520.998 179.789C528.248 181.78 535.454 184.08 542.129 186.381C612.815 210.403 658.569 247.831 657.995 287.293C657.995 327.596 609.058 367.368 533.995 391.921C529.928 393.071 525.905 394.487 521.838 395.637C523.562 401.344 524.711 407.051 525.905 412.802C540.979 486.86 529.353 547.47 494.341 567.466C485.146 572.598 474.581 575.208 463.839 574.987C431.744 574.943 390.986 555.389 349.874 520.527H349.785ZM406.547 415.59C389.925 439.523 371.623 462.44 351.819 484.206C357.3 489.603 362.826 494.514 368.308 499.071C416.095 539.683 460.125 554.813 480.681 543.09C486.959 538.091 492.087 531.941 495.8 525.084C499.469 518.227 501.635 510.706 502.122 503.052C506.321 474.694 505.128 445.85 498.629 417.846C497.745 412.714 496.684 407.538 495.181 402.14C466.005 408.467 436.386 412.935 406.547 415.545V415.59ZM163.852 424.747C152.004 485.666 160.669 531.101 181.269 542.824C188.563 545.656 196.476 546.939 204.389 546.629C212.302 546.319 220.038 544.417 227.067 541.011C254.387 530.393 279.231 515.042 300.362 495.841C304.694 492.391 308.761 488.409 313.094 484.427C292.847 462.661 274.059 439.745 256.907 415.811C227.2 413.51 197.67 409.307 168.582 403.246C166.769 410.723 165.31 417.846 163.896 424.747H163.852ZM332.412 464.785C345.143 450.76 357.875 435.321 370.651 418.2C357.919 418.775 344.569 419.04 331.263 419.04C317.956 419.04 305.49 418.775 293.024 418.2C306.065 435.055 319.106 450.76 332.412 464.785ZM271.583 185.762C260.576 201.467 249.878 218.013 239.71 235.532C229.587 252.697 220.348 270.128 211.904 287.514C220.613 304.679 229.852 322.11 240.02 339.85C250.143 357.015 260.885 373.915 271.893 389.886C290.99 391.036 311.016 391.7 331.263 391.7C351.509 391.7 371.8 391.125 391.207 389.709C401.64 374.004 412.338 357.104 422.505 339.673C432.673 322.243 442.177 304.502 450.621 287.381C442.221 270.526 432.673 253.095 422.505 235.62C412.382 218.145 401.64 201.555 390.942 185.85C371.579 184.434 351.553 183.55 331.263 183.55C310.972 183.55 290.99 184.39 271.583 185.806V185.762ZM176.008 377.012C195.901 381.215 216.016 384.356 236.262 386.479C229.322 375.641 222.381 364.757 215.706 353.299C209.34 342.151 202.975 331.002 197.183 319.854C188.784 339.275 181.844 358.475 176.053 377.012H176.008ZM446.775 352.99C440.1 364.404 433.424 375.287 426.793 385.86C447.349 383.471 467.773 380.065 487.887 375.552C481.61 356.263 474.227 337.284 465.872 318.659C459.772 330.073 453.406 341.531 446.731 352.945L446.775 352.99ZM126.497 212.881C67.4367 233.453 31.806 263.447 31.806 286.939C32.9112 294.504 35.652 301.759 39.8517 308.351C44.0071 314.943 49.5772 320.694 56.1198 325.251C78.7094 342.814 104.659 356.396 132.597 365.288C137.814 367.102 143.295 368.429 148.821 370.155C157.707 342.018 168.449 314.456 180.96 287.514C168.405 261.058 157.795 233.851 149.087 206.112C141.262 208.059 133.747 210.315 126.497 212.881V212.881ZM481.875 286.939C494.739 313.527 505.747 340.824 514.809 368.695C518.567 367.545 522.368 366.394 525.816 365.244C590.403 344.097 630.454 311.802 630.675 286.629C630.675 263.182 593.63 232.877 533.066 212.306C526.966 210.315 520.335 208.324 513.704 206.289C504.951 233.762 494.297 260.704 481.875 286.939V286.939ZM446.554 221.198C453.229 232.612 459.595 243.805 465.386 254.953C473.431 236.726 480.372 218.101 486.251 199.211C466.579 194.787 446.686 191.336 426.572 188.903C433.513 199.476 440.188 210.049 446.554 221.198ZM176.318 198.945C182.109 217.261 189.049 235.841 197.183 254.953C202.975 243.805 209.34 232.656 215.706 221.508C222.072 210.359 228.747 199.52 235.688 188.903C214.822 191.424 195.15 194.831 176.318 198.901V198.945ZM366.009 77.4173C361.102 81.7086 356.151 86.2653 351.244 90.8663C371.358 112.367 389.836 135.107 406.547 158.952C436.033 161.606 465.253 166.163 494.032 172.666C495.181 168.375 495.977 164.084 496.949 159.793C510.521 94.0516 502.166 43.7062 480.151 31.142C475.332 28.6203 469.851 27.3816 464.281 27.5585C440.63 27.47 404.292 44.5025 366.009 77.3288V77.4173ZM180.65 31.8941C160.094 43.6177 151.96 90.5123 164.161 152.272C165.62 158.863 167.079 165.411 168.803 172.268C197.626 165.986 226.802 161.518 256.288 158.819C273.086 134.93 291.653 112.19 311.9 90.7336C308.717 87.5925 305.225 84.7169 302.042 81.8413C261.725 46.5818 223 28.0009 197.67 28.0009C191.702 27.824 185.822 29.1512 180.694 31.8941H180.65ZM370.076 156.519C358.14 140.548 345.232 125.152 331.484 110.509C318.443 124.489 305.402 139.973 292.714 156.519C305.446 155.944 318.177 155.678 331.218 155.678C344.259 155.678 357.3 155.899 370.076 156.519ZM273.352 288.045C273.086 280.701 274.368 273.357 277.153 266.5C279.939 259.598 284.182 253.316 289.62 247.963C295.057 242.61 301.6 238.275 308.806 235.266C316.055 232.258 323.88 230.577 331.793 230.311C347.84 230.798 363.003 237.169 373.966 248.008C384.93 258.846 390.809 273.224 390.323 288.089C390.853 302.91 384.974 317.332 374.01 328.215C363.047 339.054 347.884 345.425 331.837 345.911C323.88 345.69 316.055 344.009 308.806 340.956C301.556 337.904 295.013 333.612 289.62 328.215C284.182 322.862 279.939 316.536 277.153 309.634C274.368 302.733 273.086 295.433 273.352 288.045V288.045Z"/>
</mask>
<path d="M349.785 520.527C343.994 515.395 337.894 510.219 332.102 504.512C327.461 508.804 323.129 512.83 318.531 516.811C261.195 566.272 202.09 586.888 167.079 566.847C133.172 547.691 122.518 491.108 136.09 419.881C137.549 412.183 139.273 404.441 141.306 396.743C135.206 394.929 129.415 393.292 123.623 391.346C51.478 366.704 4 326.667 4 286.629C4 246.592 48.2952 210.58 117.523 186.558C125.259 183.992 133.437 181.426 141.881 179.126C139.936 171.693 138.433 164.526 136.974 157.625C122.474 85.3363 132.597 27.6028 166.813 8.18131C202.444 -12.3904 261.504 9.59699 320.874 61.3581C324.322 64.4991 327.814 67.9498 331.572 71.3563C337.054 66.2245 342.27 61.0484 347.796 56.4916C403.938 8.09283 459.816 -12.125 494.032 7.34074C529.662 27.3373 540.095 89.0967 524.181 165.455C523.297 170.322 522.236 174.923 520.998 179.789C528.248 181.78 535.454 184.08 542.129 186.381C612.815 210.403 658.569 247.831 657.995 287.293C657.995 327.596 609.058 367.368 533.995 391.921C529.928 393.071 525.905 394.487 521.838 395.637C523.562 401.344 524.711 407.051 525.905 412.802C540.979 486.86 529.353 547.47 494.341 567.466C485.146 572.598 474.581 575.208 463.839 574.987C431.744 574.943 390.986 555.389 349.874 520.527H349.785ZM406.547 415.59C389.925 439.523 371.623 462.44 351.819 484.206C357.3 489.603 362.826 494.514 368.308 499.071C416.095 539.683 460.125 554.813 480.681 543.09C486.959 538.091 492.087 531.941 495.8 525.084C499.469 518.227 501.635 510.706 502.122 503.052C506.321 474.694 505.128 445.85 498.629 417.846C497.745 412.714 496.684 407.538 495.181 402.14C466.005 408.467 436.386 412.935 406.547 415.545V415.59ZM163.852 424.747C152.004 485.666 160.669 531.101 181.269 542.824C188.563 545.656 196.476 546.939 204.389 546.629C212.302 546.319 220.038 544.417 227.067 541.011C254.387 530.393 279.231 515.042 300.362 495.841C304.694 492.391 308.761 488.409 313.094 484.427C292.847 462.661 274.059 439.745 256.907 415.811C227.2 413.51 197.67 409.307 168.582 403.246C166.769 410.723 165.31 417.846 163.896 424.747H163.852ZM332.412 464.785C345.143 450.76 357.875 435.321 370.651 418.2C357.919 418.775 344.569 419.04 331.263 419.04C317.956 419.04 305.49 418.775 293.024 418.2C306.065 435.055 319.106 450.76 332.412 464.785ZM271.583 185.762C260.576 201.467 249.878 218.013 239.71 235.532C229.587 252.697 220.348 270.128 211.904 287.514C220.613 304.679 229.852 322.11 240.02 339.85C250.143 357.015 260.885 373.915 271.893 389.886C290.99 391.036 311.016 391.7 331.263 391.7C351.509 391.7 371.8 391.125 391.207 389.709C401.64 374.004 412.338 357.104 422.505 339.673C432.673 322.243 442.177 304.502 450.621 287.381C442.221 270.526 432.673 253.095 422.505 235.62C412.382 218.145 401.64 201.555 390.942 185.85C371.579 184.434 351.553 183.55 331.263 183.55C310.972 183.55 290.99 184.39 271.583 185.806V185.762ZM176.008 377.012C195.901 381.215 216.016 384.356 236.262 386.479C229.322 375.641 222.381 364.757 215.706 353.299C209.34 342.151 202.975 331.002 197.183 319.854C188.784 339.275 181.844 358.475 176.053 377.012H176.008ZM446.775 352.99C440.1 364.404 433.424 375.287 426.793 385.86C447.349 383.471 467.773 380.065 487.887 375.552C481.61 356.263 474.227 337.284 465.872 318.659C459.772 330.073 453.406 341.531 446.731 352.945L446.775 352.99ZM126.497 212.881C67.4367 233.453 31.806 263.447 31.806 286.939C32.9112 294.504 35.652 301.759 39.8517 308.351C44.0071 314.943 49.5772 320.694 56.1198 325.251C78.7094 342.814 104.659 356.396 132.597 365.288C137.814 367.102 143.295 368.429 148.821 370.155C157.707 342.018 168.449 314.456 180.96 287.514C168.405 261.058 157.795 233.851 149.087 206.112C141.262 208.059 133.747 210.315 126.497 212.881V212.881ZM481.875 286.939C494.739 313.527 505.747 340.824 514.809 368.695C518.567 367.545 522.368 366.394 525.816 365.244C590.403 344.097 630.454 311.802 630.675 286.629C630.675 263.182 593.63 232.877 533.066 212.306C526.966 210.315 520.335 208.324 513.704 206.289C504.951 233.762 494.297 260.704 481.875 286.939V286.939ZM446.554 221.198C453.229 232.612 459.595 243.805 465.386 254.953C473.431 236.726 480.372 218.101 486.251 199.211C466.579 194.787 446.686 191.336 426.572 188.903C433.513 199.476 440.188 210.049 446.554 221.198ZM176.318 198.945C182.109 217.261 189.049 235.841 197.183 254.953C202.975 243.805 209.34 232.656 215.706 221.508C222.072 210.359 228.747 199.52 235.688 188.903C214.822 191.424 195.15 194.831 176.318 198.901V198.945ZM366.009 77.4173C361.102 81.7086 356.151 86.2653 351.244 90.8663C371.358 112.367 389.836 135.107 406.547 158.952C436.033 161.606 465.253 166.163 494.032 172.666C495.181 168.375 495.977 164.084 496.949 159.793C510.521 94.0516 502.166 43.7062 480.151 31.142C475.332 28.6203 469.851 27.3816 464.281 27.5585C440.63 27.47 404.292 44.5025 366.009 77.3288V77.4173ZM180.65 31.8941C160.094 43.6177 151.96 90.5123 164.161 152.272C165.62 158.863 167.079 165.411 168.803 172.268C197.626 165.986 226.802 161.518 256.288 158.819C273.086 134.93 291.653 112.19 311.9 90.7336C308.717 87.5925 305.225 84.7169 302.042 81.8413C261.725 46.5818 223 28.0009 197.67 28.0009C191.702 27.824 185.822 29.1512 180.694 31.8941H180.65ZM370.076 156.519C358.14 140.548 345.232 125.152 331.484 110.509C318.443 124.489 305.402 139.973 292.714 156.519C305.446 155.944 318.177 155.678 331.218 155.678C344.259 155.678 357.3 155.899 370.076 156.519ZM273.352 288.045C273.086 280.701 274.368 273.357 277.153 266.5C279.939 259.598 284.182 253.316 289.62 247.963C295.057 242.61 301.6 238.275 308.806 235.266C316.055 232.258 323.88 230.577 331.793 230.311C347.84 230.798 363.003 237.169 373.966 248.008C384.93 258.846 390.809 273.224 390.323 288.089C390.853 302.91 384.974 317.332 374.01 328.215C363.047 339.054 347.884 345.425 331.837 345.911C323.88 345.69 316.055 344.009 308.806 340.956C301.556 337.904 295.013 333.612 289.62 328.215C284.182 322.862 279.939 316.536 277.153 309.634C274.368 302.733 273.086 295.433 273.352 288.045V288.045Z" fill="url(#paint0_linear_24_689)" shape-rendering="crispEdges"/>
<path d="M349.785 520.527C343.994 515.395 337.894 510.219 332.102 504.512C327.461 508.804 323.129 512.83 318.531 516.811C261.195 566.272 202.09 586.888 167.079 566.847C133.172 547.691 122.518 491.108 136.09 419.881C137.549 412.183 139.273 404.441 141.306 396.743C135.206 394.929 129.415 393.292 123.623 391.346C51.478 366.704 4 326.667 4 286.629C4 246.592 48.2952 210.58 117.523 186.558C125.259 183.992 133.437 181.426 141.881 179.126C139.936 171.693 138.433 164.526 136.974 157.625C122.474 85.3363 132.597 27.6028 166.813 8.18131C202.444 -12.3904 261.504 9.59699 320.874 61.3581C324.322 64.4991 327.814 67.9498 331.572 71.3563C337.054 66.2245 342.27 61.0484 347.796 56.4916C403.938 8.09283 459.816 -12.125 494.032 7.34074C529.662 27.3373 540.095 89.0967 524.181 165.455C523.297 170.322 522.236 174.923 520.998 179.789C528.248 181.78 535.454 184.08 542.129 186.381C612.815 210.403 658.569 247.831 657.995 287.293C657.995 327.596 609.058 367.368 533.995 391.921C529.928 393.071 525.905 394.487 521.838 395.637C523.562 401.344 524.711 407.051 525.905 412.802C540.979 486.86 529.353 547.47 494.341 567.466C485.146 572.598 474.581 575.208 463.839 574.987C431.744 574.943 390.986 555.389 349.874 520.527H349.785ZM406.547 415.59C389.925 439.523 371.623 462.44 351.819 484.206C357.3 489.603 362.826 494.514 368.308 499.071C416.095 539.683 460.125 554.813 480.681 543.09C486.959 538.091 492.087 531.941 495.8 525.084C499.469 518.227 501.635 510.706 502.122 503.052C506.321 474.694 505.128 445.85 498.629 417.846C497.745 412.714 496.684 407.538 495.181 402.14C466.005 408.467 436.386 412.935 406.547 415.545V415.59ZM163.852 424.747C152.004 485.666 160.669 531.101 181.269 542.824C188.563 545.656 196.476 546.939 204.389 546.629C212.302 546.319 220.038 544.417 227.067 541.011C254.387 530.393 279.231 515.042 300.362 495.841C304.694 492.391 308.761 488.409 313.094 484.427C292.847 462.661 274.059 439.745 256.907 415.811C227.2 413.51 197.67 409.307 168.582 403.246C166.769 410.723 165.31 417.846 163.896 424.747H163.852ZM332.412 464.785C345.143 450.76 357.875 435.321 370.651 418.2C357.919 418.775 344.569 419.04 331.263 419.04C317.956 419.04 305.49 418.775 293.024 418.2C306.065 435.055 319.106 450.76 332.412 464.785ZM271.583 185.762C260.576 201.467 249.878 218.013 239.71 235.532C229.587 252.697 220.348 270.128 211.904 287.514C220.613 304.679 229.852 322.11 240.02 339.85C250.143 357.015 260.885 373.915 271.893 389.886C290.99 391.036 311.016 391.7 331.263 391.7C351.509 391.7 371.8 391.125 391.207 389.709C401.64 374.004 412.338 357.104 422.505 339.673C432.673 322.243 442.177 304.502 450.621 287.381C442.221 270.526 432.673 253.095 422.505 235.62C412.382 218.145 401.64 201.555 390.942 185.85C371.579 184.434 351.553 183.55 331.263 183.55C310.972 183.55 290.99 184.39 271.583 185.806V185.762ZM176.008 377.012C195.901 381.215 216.016 384.356 236.262 386.479C229.322 375.641 222.381 364.757 215.706 353.299C209.34 342.151 202.975 331.002 197.183 319.854C188.784 339.275 181.844 358.475 176.053 377.012H176.008ZM446.775 352.99C440.1 364.404 433.424 375.287 426.793 385.86C447.349 383.471 467.773 380.065 487.887 375.552C481.61 356.263 474.227 337.284 465.872 318.659C459.772 330.073 453.406 341.531 446.731 352.945L446.775 352.99ZM126.497 212.881C67.4367 233.453 31.806 263.447 31.806 286.939C32.9112 294.504 35.652 301.759 39.8517 308.351C44.0071 314.943 49.5772 320.694 56.1198 325.251C78.7094 342.814 104.659 356.396 132.597 365.288C137.814 367.102 143.295 368.429 148.821 370.155C157.707 342.018 168.449 314.456 180.96 287.514C168.405 261.058 157.795 233.851 149.087 206.112C141.262 208.059 133.747 210.315 126.497 212.881V212.881ZM481.875 286.939C494.739 313.527 505.747 340.824 514.809 368.695C518.567 367.545 522.368 366.394 525.816 365.244C590.403 344.097 630.454 311.802 630.675 286.629C630.675 263.182 593.63 232.877 533.066 212.306C526.966 210.315 520.335 208.324 513.704 206.289C504.951 233.762 494.297 260.704 481.875 286.939V286.939ZM446.554 221.198C453.229 232.612 459.595 243.805 465.386 254.953C473.431 236.726 480.372 218.101 486.251 199.211C466.579 194.787 446.686 191.336 426.572 188.903C433.513 199.476 440.188 210.049 446.554 221.198ZM176.318 198.945C182.109 217.261 189.049 235.841 197.183 254.953C202.975 243.805 209.34 232.656 215.706 221.508C222.072 210.359 228.747 199.52 235.688 188.903C214.822 191.424 195.15 194.831 176.318 198.901V198.945ZM366.009 77.4173C361.102 81.7086 356.151 86.2653 351.244 90.8663C371.358 112.367 389.836 135.107 406.547 158.952C436.033 161.606 465.253 166.163 494.032 172.666C495.181 168.375 495.977 164.084 496.949 159.793C510.521 94.0516 502.166 43.7062 480.151 31.142C475.332 28.6203 469.851 27.3816 464.281 27.5585C440.63 27.47 404.292 44.5025 366.009 77.3288V77.4173ZM180.65 31.8941C160.094 43.6177 151.96 90.5123 164.161 152.272C165.62 158.863 167.079 165.411 168.803 172.268C197.626 165.986 226.802 161.518 256.288 158.819C273.086 134.93 291.653 112.19 311.9 90.7336C308.717 87.5925 305.225 84.7169 302.042 81.8413C261.725 46.5818 223 28.0009 197.67 28.0009C191.702 27.824 185.822 29.1512 180.694 31.8941H180.65ZM370.076 156.519C358.14 140.548 345.232 125.152 331.484 110.509C318.443 124.489 305.402 139.973 292.714 156.519C305.446 155.944 318.177 155.678 331.218 155.678C344.259 155.678 357.3 155.899 370.076 156.519ZM273.352 288.045C273.086 280.701 274.368 273.357 277.153 266.5C279.939 259.598 284.182 253.316 289.62 247.963C295.057 242.61 301.6 238.275 308.806 235.266C316.055 232.258 323.88 230.577 331.793 230.311C347.84 230.798 363.003 237.169 373.966 248.008C384.93 258.846 390.809 273.224 390.323 288.089C390.853 302.91 384.974 317.332 374.01 328.215C363.047 339.054 347.884 345.425 331.837 345.911C323.88 345.69 316.055 344.009 308.806 340.956C301.556 337.904 295.013 333.612 289.62 328.215C284.182 322.862 279.939 316.536 277.153 309.634C274.368 302.733 273.086 295.433 273.352 288.045V288.045Z" stroke="black" stroke-width="2" shape-rendering="crispEdges" mask="url(#path-1-inside-1_24_689)"/>
</g>
<defs>
<filter id="filter0_d_24_689" x="0" y="0" width="662" height="583" filterUnits="userSpaceOnUse" color-interpolation-filters="sRGB">
<feFlood flood-opacity="0" result="BackgroundImageFix"/>
<feColorMatrix in="SourceAlpha" type="matrix" values="0 0 0 0 0 0 0 0 0 0 0 0 0 0 0 0 0 0 127 0" result="hardAlpha"/>
<feOffset dy="4"/>
<feGaussianBlur stdDeviation="2"/>
<feComposite in2="hardAlpha" operator="out"/>
<feColorMatrix type="matrix" values="0 0 0 0 0 0 0 0 0 0 0 0 0 0 0 0 0 0 0.25 0"/>
<feBlend mode="normal" in2="BackgroundImageFix" result="effect1_dropShadow_24_689"/>
<feBlend mode="normal" in="SourceGraphic" in2="effect1_dropShadow_24_689" result="shape"/>
</filter>
<linearGradient id="paint0_linear_24_689" x1="331" y1="0" x2="331" y2="575" gradientUnits="userSpaceOnUse">
<stop stop-color="white"/>
<stop offset="1" stop-color="#81D8F7" stop-opacity="0"/>
</linearGradient>
</defs>
</svg>
